# xmcd
#
# Track frame offsets:
#	150
#	30878
#	73174
#	101202
#	145159
#	166937
#	171627
#	180321
#	240919
#	272241
#
# Disc length: 4172 seconds
#
# Revision: 1
# Processed by: cddbd v1.5.2PL0 Copyright (c) Steve Scherf et al.
# Submitted via: audiograbber 1.83.01
#
DISCID=85104a0a
DTITLE=Robbins, Anthony - Time Of Your Life Day 8 CD12 - How To Get Started - T
DTITLE=he Weekly Planning Process
DYEAR=1998
DGENRE=Personal Development
TTITLE0=Now Let's Really Get Started
TTITLE1=Are You Living a Life of Reaction?
TTITLE2=Exercise - Get Certain That You Can Make Dreams Real
TTITLE3=Putting It All Together - Ingredients For a Life That Works
TTITLE4=Weekly Planning - Your Hour of Power
TTITLE5=Stage 1 - Connect To Your Driving Force
TTITLE6=Stage 2 -  Own Your Roles, Goals and Resources
TTITLE7=Stage 3 - Create Your RPM Master Plan
TTITLE8=Stage 4 - Set Yourself Up To Win
TTITLE9=Your Assignments - Identify Your Driving Force and Plan Your Week
EXTD=
EXTT0=
EXTT1=
EXTT2=
EXTT3=
EXTT4=
EXTT5=
EXTT6=
EXTT7=
EXTT8=
EXTT9=
PLAYORDER=
